<svg width="128" height="48" viewBox="0 0 128 48" fill="none" xmlns="http://www.w3.org/2000/svg">
<path d="M51.6077 18H48.0317C47.7277 18 47.5037 17.936 47.3597 17.808C47.2317 17.664 47.1677 17.44 47.1677 17.136V1.584C47.1677 1.28 47.2317 1.064 47.3597 0.935999C47.5037 0.791999 47.7277 0.719999 48.0317 0.719999H51.8957C52.1517 0.719999 52.3597 0.775999 52.5197 0.887999C52.6957 0.999999 52.8557 1.184 52.9997 1.44L55.1597 5.352C55.2397 5.496 55.3037 5.6 55.3517 5.664C55.4157 5.728 55.4957 5.76 55.5917 5.76H55.8077C55.9037 5.76 55.9757 5.728 56.0237 5.664C56.0877 5.6 56.1597 5.496 56.2397 5.352L58.3757 1.44C58.5197 1.184 58.6717 0.999999 58.8317 0.887999C59.0077 0.775999 59.2237 0.719999 59.4797 0.719999H63.3677C63.6717 0.719999 63.8877 0.791999 64.0157 0.935999C64.1597 1.064 64.2317 1.28 64.2317 1.584V17.136C64.2317 17.44 64.1597 17.664 64.0157 17.808C63.8877 17.936 63.6717 18 63.3677 18H59.6717C59.3677 18 59.1437 17.936 58.9997 17.808C58.8717 17.664 58.8077 17.44 58.8077 17.136V8.688L57.3917 11.304C57.2477 11.576 57.0717 11.776 56.8637 11.904C56.6717 12.016 56.4237 12.072 56.1197 12.072H55.1597C54.8557 12.072 54.5997 12.016 54.3917 11.904C54.1997 11.776 54.0317 11.576 53.8877 11.304L52.4717 8.688V17.136C52.4717 17.44 52.3997 17.664 52.2557 17.808C52.1277 17.936 51.9117 18 51.6077 18ZM75.5509 18H67.9669C67.6629 18 67.4389 17.936 67.2949 17.808C67.1669 17.664 67.1029 17.44 67.1029 17.136V14.328C67.1029 14.024 67.1669 13.808 67.2949 13.68C67.4389 13.536 67.6629 13.464 67.9669 13.464H74.4229C74.6309 13.464 74.7829 13.4 74.8789 13.272C74.9909 13.128 75.0469 12.96 75.0469 12.768C75.0469 12.496 74.9909 12.296 74.8789 12.168C74.7829 12.04 74.6309 11.968 74.4229 11.952L70.8229 11.448C69.7029 11.288 68.7989 10.92 68.1109 10.344C67.4389 9.768 67.1029 8.808 67.1029 7.464V4.944C67.1029 3.584 67.5429 2.544 68.4229 1.824C69.3029 1.088 70.5189 0.719999 72.0709 0.719999H78.7909C79.0949 0.719999 79.3109 0.791999 79.4389 0.935999C79.5829 1.064 79.6549 1.28 79.6549 1.584V4.44C79.6549 4.744 79.5829 4.968 79.4389 5.112C79.3109 5.24 79.0949 5.304 78.7909 5.304H73.1989C72.9909 5.304 72.8309 5.376 72.7189 5.52C72.6069 5.648 72.5509 5.816 72.5509 6.024C72.5509 6.232 72.6069 6.408 72.7189 6.552C72.8309 6.696 72.9909 6.776 73.1989 6.792L76.7749 7.272C77.8949 7.432 78.7989 7.8 79.4869 8.376C80.1749 8.952 80.5189 9.912 80.5189 11.256V13.776C80.5189 15.136 80.0709 16.184 79.1749 16.92C78.2949 17.64 77.0869 18 75.5509 18ZM4.58375 47H0.86375C0.55975 47 0.33575 46.936 0.19175 46.808C0.0637501 46.664 -0.000249863 46.44 -0.000249863 46.136V30.584C-0.000249863 30.28 0.0637501 30.064 0.19175 29.936C0.33575 29.792 0.55975 29.72 0.86375 29.72H8.20775C10.3838 29.72 11.8718 30.152 12.6718 31.016C13.4718 31.88 13.8718 33.008 13.8718 34.4V37.472C13.8718 38.864 13.4718 39.992 12.6718 40.856C11.8718 41.72 10.3838 42.152 8.20775 42.152H5.44775V46.136C5.44775 46.44 5.37575 46.664 5.23175 46.808C5.10375 46.936 4.88775 47 4.58375 47ZM5.39975 34.208V37.832H7.55975C8.02375 37.832 8.32775 37.712 8.47175 37.472C8.61575 37.232 8.68775 36.96 8.68775 36.656V35.384C8.68775 35.08 8.61575 34.808 8.47175 34.568C8.32775 34.328 8.02375 34.208 7.55975 34.208H5.39975ZM21.7831 34.04V37.112H23.5831C23.9991 37.112 24.2791 37.008 24.4231 36.8C24.5671 36.576 24.6391 36.304 24.6391 35.984V35.168C24.6391 34.848 24.5671 34.584 24.4231 34.376C24.2791 34.152 23.9991 34.04 23.5831 34.04H21.7831ZM20.9191 47H17.2231C16.9191 47 16.6951 46.936 16.5511 46.808C16.4231 46.664 16.3591 46.44 16.3591 46.136V30.584C16.3591 30.28 16.4231 30.064 16.5511 29.936C16.6951 29.792 16.9191 29.72 17.2231 29.72H25.2151C27.0071 29.72 28.2391 30.096 28.9111 30.848C29.5991 31.584 29.9431 32.544 29.9431 33.728V34.832C29.9431 35.504 29.8391 36.08 29.6311 36.56C29.4391 37.024 29.0951 37.36 28.5991 37.568C29.4631 37.664 30.1591 38.016 30.6871 38.624C31.2311 39.232 31.5031 40.04 31.5031 41.048V46.136C31.5031 46.44 31.4311 46.664 31.2871 46.808C31.1591 46.936 30.9431 47 30.6391 47H26.9191C26.6151 47 26.3911 46.936 26.2471 46.808C26.1191 46.664 26.0551 46.44 26.0551 46.136V42.464C26.0551 42.112 25.9831 41.856 25.8391 41.696C25.7111 41.52 25.4791 41.432 25.1431 41.432H21.7831V46.136C21.7831 46.44 21.7111 46.664 21.5671 46.808C21.4391 46.936 21.2231 47 20.9191 47ZM48.7179 42.464C48.7179 43.2 48.6059 43.872 48.3819 44.48C48.1739 45.072 47.7899 45.584 47.2299 46.016C46.6859 46.432 45.9259 46.76 44.9499 47C43.9899 47.24 42.7659 47.36 41.2779 47.36C39.7899 47.36 38.5579 47.24 37.5819 47C36.6059 46.76 35.8379 46.432 35.2779 46.016C34.7339 45.584 34.3499 45.072 34.1259 44.48C33.9179 43.872 33.8139 43.2 33.8139 42.464V34.28C33.8139 33.544 33.9179 32.88 34.1259 32.288C34.3499 31.68 34.7339 31.16 35.2779 30.728C35.8379 30.296 36.6059 29.96 37.5819 29.72C38.5579 29.48 39.7899 29.36 41.2779 29.36C42.7659 29.36 43.9899 29.48 44.9499 29.72C45.9259 29.96 46.6859 30.296 47.2299 30.728C47.7899 31.16 48.1739 31.68 48.3819 32.288C48.6059 32.88 48.7179 33.544 48.7179 34.28V42.464ZM39.2619 41.6C39.2619 41.92 39.3819 42.192 39.6219 42.416C39.8619 42.624 40.4139 42.728 41.2779 42.728C42.1419 42.728 42.6939 42.624 42.9339 42.416C43.1739 42.192 43.2939 41.92 43.2939 41.6V35.144C43.2939 34.84 43.1739 34.584 42.9339 34.376C42.6939 34.152 42.1419 34.04 41.2779 34.04C40.4139 34.04 39.8619 34.152 39.6219 34.376C39.3819 34.584 39.2619 34.84 39.2619 35.144V41.6ZM65.0932 42.464C65.0932 43.2 64.9892 43.872 64.7812 44.48C64.5732 45.072 64.2052 45.584 63.6772 46.016C63.1652 46.432 62.4532 46.76 61.5412 47C60.6292 47.24 59.4692 47.36 58.0612 47.36C56.6692 47.36 55.5172 47.24 54.6052 47C53.7092 46.76 52.9972 46.432 52.4692 46.016C51.9572 45.584 51.5972 45.072 51.3892 44.48C51.1972 43.872 51.1012 43.2 51.1012 42.464V38.576C51.1012 38.272 51.1652 38.056 51.2932 37.928C51.4372 37.784 51.6612 37.712 51.9652 37.712H55.4452C55.7492 37.712 55.9652 37.784 56.0932 37.928C56.2372 38.056 56.3092 38.272 56.3092 38.576V41.504C56.3092 41.824 56.4052 42.096 56.5972 42.32C56.8052 42.528 57.2772 42.632 58.0132 42.632C58.7012 42.632 59.1332 42.528 59.3092 42.32C59.5012 42.096 59.5972 41.824 59.5972 41.504V30.584C59.5972 30.28 59.6612 30.064 59.7892 29.936C59.9332 29.792 60.1572 29.72 60.4612 29.72H64.2292C64.5332 29.72 64.7492 29.792 64.8772 29.936C65.0212 30.064 65.0932 30.28 65.0932 30.584V42.464ZM80.2966 47H69.1606C68.8566 47 68.6326 46.936 68.4886 46.808C68.3606 46.664 68.2966 46.44 68.2966 46.136V30.584C68.2966 30.28 68.3606 30.064 68.4886 29.936C68.6326 29.792 68.8566 29.72 69.1606 29.72H80.2966C80.6006 29.72 80.8166 29.792 80.9446 29.936C81.0886 30.064 81.1606 30.28 81.1606 30.584V33.392C81.1606 33.696 81.0886 33.92 80.9446 34.064C80.8166 34.192 80.6006 34.256 80.2966 34.256H73.6726V36.104H78.3526C78.6566 36.104 78.8726 36.176 79.0006 36.32C79.1446 36.448 79.2166 36.664 79.2166 36.968V39.536C79.2166 39.84 79.1446 40.064 79.0006 40.208C78.8726 40.336 78.6566 40.4 78.3526 40.4H73.6726V42.464H80.2966C80.6006 42.464 80.8166 42.536 80.9446 42.68C81.0886 42.808 81.1606 43.024 81.1606 43.328V46.136C81.1606 46.44 81.0886 46.664 80.9446 46.808C80.8166 46.936 80.6006 47 80.2966 47ZM95.3786 47H89.5226C87.5226 47 86.0346 46.6 85.0586 45.8C84.0986 45 83.6186 43.768 83.6186 42.104V34.64C83.6186 32.976 84.0986 31.744 85.0586 30.944C86.0346 30.128 87.5226 29.72 89.5226 29.72H95.3786C95.6826 29.72 95.8986 29.792 96.0266 29.936C96.1706 30.064 96.2426 30.28 96.2426 30.584V33.488C96.2426 33.792 96.1706 34.016 96.0266 34.16C95.8986 34.288 95.6826 34.352 95.3786 34.352H90.5546C90.0586 34.352 89.6906 34.456 89.4506 34.664C89.2106 34.856 89.0906 35.152 89.0906 35.552V41.264C89.0906 41.664 89.2106 41.96 89.4506 42.152C89.6906 42.328 90.0586 42.416 90.5546 42.416H95.3786C95.6826 42.416 95.8986 42.488 96.0266 42.632C96.1706 42.76 96.2426 42.976 96.2426 43.28V46.136C96.2426 46.44 96.1706 46.664 96.0266 46.808C95.8986 46.936 95.6826 47 95.3786 47ZM107.113 47H103.225C102.921 47 102.697 46.936 102.553 46.808C102.425 46.664 102.361 46.44 102.361 46.136V34.352H98.8329C98.5289 34.352 98.3049 34.288 98.1609 34.16C98.0329 34.016 97.9689 33.792 97.9689 33.488V30.584C97.9689 30.28 98.0329 30.064 98.1609 29.936C98.3049 29.792 98.5289 29.72 98.8329 29.72H111.505C111.809 29.72 112.025 29.792 112.153 29.936C112.297 30.064 112.369 30.28 112.369 30.584V33.488C112.369 33.792 112.297 34.016 112.153 34.16C112.025 34.288 111.809 34.352 111.505 34.352H107.977V46.136C107.977 46.44 107.905 46.664 107.761 46.808C107.633 46.936 107.417 47 107.113 47ZM122.719 47H115.135C114.831 47 114.607 46.936 114.463 46.808C114.335 46.664 114.271 46.44 114.271 46.136V43.328C114.271 43.024 114.335 42.808 114.463 42.68C114.607 42.536 114.831 42.464 115.135 42.464H121.591C121.799 42.464 121.951 42.4 122.047 42.272C122.159 42.128 122.215 41.96 122.215 41.768C122.215 41.496 122.159 41.296 122.047 41.168C121.951 41.04 121.799 40.968 121.591 40.952L117.991 40.448C116.871 40.288 115.967 39.92 115.279 39.344C114.607 38.768 114.271 37.808 114.271 36.464V33.944C114.271 32.584 114.711 31.544 115.591 30.824C116.471 30.088 117.687 29.72 119.239 29.72H125.959C126.263 29.72 126.479 29.792 126.607 29.936C126.751 30.064 126.823 30.28 126.823 30.584V33.44C126.823 33.744 126.751 33.968 126.607 34.112C126.479 34.24 126.263 34.304 125.959 34.304H120.367C120.159 34.304 119.999 34.376 119.887 34.52C119.775 34.648 119.719 34.816 119.719 35.024C119.719 35.232 119.775 35.408 119.887 35.552C119.999 35.696 120.159 35.776 120.367 35.792L123.943 36.272C125.063 36.432 125.967 36.8 126.655 37.376C127.343 37.952 127.687 38.912 127.687 40.256V42.776C127.687 44.136 127.239 45.184 126.343 45.92C125.463 46.64 124.255 47 122.719 47Z" fill="white"/>
</svg>
