<svg width="176" height="9" viewBox="0 0 176 9" fill="none" xmlns="http://www.w3.org/2000/svg">
<path d="M4.65377 1.58C4.65377 1.664 4.61777 1.7 4.53377 1.7H3.22577C3.14177 1.7 3.10577 1.736 3.10577 1.82V7.88C3.10577 7.964 3.06977 8 2.98577 8H1.85777C1.77377 8 1.73777 7.964 1.73777 7.88V1.82C1.73777 1.736 1.70177 1.7 1.61777 1.7H0.309766C0.225766 1.7 0.189766 1.664 0.189766 1.58V0.56C0.189766 0.476 0.225766 0.439999 0.309766 0.439999H4.53377C4.61777 0.439999 4.65377 0.476 4.65377 0.56V1.58ZM10.2564 5.996C10.2564 7.244 9.38036 8.12 8.02436 8.12H7.43636C6.06836 8.12 5.20436 7.244 5.20436 5.996V2.444C5.20436 1.196 6.06836 0.319999 7.43636 0.319999H8.02436C9.38036 0.319999 10.2564 1.196 10.2564 2.444V5.996ZM8.87636 5.996V2.444C8.87636 1.964 8.50436 1.58 8.02436 1.58H7.43636C6.96836 1.58 6.57236 1.976 6.57236 2.444V5.996C6.57236 6.464 6.96836 6.86 7.43636 6.86H8.02436C8.50436 6.86 8.87636 6.476 8.87636 5.996ZM16.6705 5.768C16.6705 7.136 15.8065 8 14.4385 8H11.7385C11.6545 8 11.6185 7.964 11.6185 7.88V0.56C11.6185 0.476 11.6545 0.439999 11.7385 0.439999H14.4385C15.8065 0.439999 16.6705 1.316 16.6705 2.672V5.768ZM15.3025 5.876V2.564C15.3025 2.096 14.9065 1.7 14.4385 1.7H13.1185C13.0345 1.7 12.9985 1.736 12.9985 1.82V6.62C12.9985 6.704 13.0345 6.74 13.1185 6.74H14.4385C14.9065 6.74 15.3025 6.368 15.3025 5.876ZM22.9946 5.996C22.9946 7.244 22.1186 8.12 20.7626 8.12H20.1746C18.8066 8.12 17.9426 7.244 17.9426 5.996V2.444C17.9426 1.196 18.8066 0.319999 20.1746 0.319999H20.7626C22.1186 0.319999 22.9946 1.196 22.9946 2.444V5.996ZM21.6146 5.996V2.444C21.6146 1.964 21.2426 1.58 20.7626 1.58H20.1746C19.7066 1.58 19.3106 1.976 19.3106 2.444V5.996C19.3106 6.464 19.7066 6.86 20.1746 6.86H20.7626C21.2426 6.86 21.6146 6.476 21.6146 5.996ZM28.8788 5.996C28.8788 7.244 28.0148 8.12 26.6468 8.12H26.1668C25.1708 8.12 24.6308 7.712 24.2708 7.148C24.1628 6.968 24.0428 6.776 24.0428 6.704C24.0428 6.668 24.0668 6.644 24.1148 6.62L25.0748 6.128C25.1228 6.104 25.1708 6.068 25.2188 6.068C25.2548 6.068 25.2908 6.092 25.3148 6.152C25.5308 6.668 25.8428 6.86 26.1668 6.86H26.6468C27.1148 6.86 27.5108 6.464 27.5108 5.996C27.5108 5.348 26.8748 5.108 26.2268 4.808C25.2788 4.352 24.2348 3.86 24.2348 2.444C24.2348 1.196 25.0988 0.319999 26.4668 0.319999H26.6588C27.6548 0.319999 28.1948 0.728 28.5548 1.292C28.6628 1.472 28.7828 1.664 28.7828 1.736C28.7828 1.772 28.7588 1.796 28.7108 1.82L27.7508 2.312C27.7028 2.336 27.6548 2.372 27.6068 2.372C27.5708 2.372 27.5348 2.348 27.5108 2.288C27.2948 1.772 26.9828 1.58 26.6588 1.58H26.4668C25.9988 1.58 25.6028 1.976 25.6028 2.444C25.6028 3.056 26.2988 3.236 26.9948 3.56C27.9068 3.98 28.8788 4.544 28.8788 5.996ZM37.104 5.996C37.104 7.244 36.228 8.12 34.872 8.12H34.284C32.916 8.12 32.052 7.244 32.052 5.996V2.444C32.052 1.196 32.916 0.319999 34.284 0.319999H34.872C36.228 0.319999 37.104 1.196 37.104 2.444V5.996ZM35.724 5.996V2.444C35.724 1.964 35.352 1.58 34.872 1.58H34.284C33.816 1.58 33.42 1.976 33.42 2.444V5.996C33.42 6.464 33.816 6.86 34.284 6.86H34.872C35.352 6.86 35.724 6.476 35.724 5.996ZM42.9881 5.996C42.9881 7.244 42.1241 8.12 40.7561 8.12H40.2761C39.2801 8.12 38.7401 7.712 38.3801 7.148C38.2721 6.968 38.1521 6.776 38.1521 6.704C38.1521 6.668 38.1761 6.644 38.2241 6.62L39.1841 6.128C39.2321 6.104 39.2801 6.068 39.3281 6.068C39.3641 6.068 39.4001 6.092 39.4241 6.152C39.6401 6.668 39.9521 6.86 40.2761 6.86H40.7561C41.2241 6.86 41.6201 6.464 41.6201 5.996C41.6201 5.348 40.9841 5.108 40.3361 4.808C39.3881 4.352 38.3441 3.86 38.3441 2.444C38.3441 1.196 39.2081 0.319999 40.5761 0.319999H40.7681C41.7641 0.319999 42.3041 0.728 42.6641 1.292C42.7721 1.472 42.8921 1.664 42.8921 1.736C42.8921 1.772 42.8681 1.796 42.8201 1.82L41.8601 2.312C41.8121 2.336 41.7641 2.372 41.7161 2.372C41.6801 2.372 41.6441 2.348 41.6201 2.288C41.4041 1.772 41.0921 1.58 40.7681 1.58H40.5761C40.1081 1.58 39.7121 1.976 39.7121 2.444C39.7121 3.056 40.4081 3.236 41.1041 3.56C42.0161 3.98 42.9881 4.544 42.9881 5.996ZM51.3814 5.768C51.3814 7.136 50.5174 8 49.1494 8H46.4494C46.3654 8 46.3294 7.964 46.3294 7.88V0.56C46.3294 0.476 46.3654 0.439999 46.4494 0.439999H49.1494C50.5174 0.439999 51.3814 1.316 51.3814 2.672V5.768ZM50.0134 5.876V2.564C50.0134 2.096 49.6174 1.7 49.1494 1.7H47.8294C47.7454 1.7 47.7094 1.736 47.7094 1.82V6.62C47.7094 6.704 47.7454 6.74 47.8294 6.74H49.1494C49.6174 6.74 50.0134 6.368 50.0134 5.876ZM54.1078 7.88C54.1078 7.964 54.0718 8 53.9878 8H52.8478C52.7638 8 52.7278 7.964 52.7278 7.88V0.56C52.7278 0.476 52.7638 0.439999 52.8478 0.439999H53.9878C54.0718 0.439999 54.1078 0.476 54.1078 0.56V7.88ZM60.7712 7.904C60.7712 7.964 60.7352 8 60.6512 8H59.4152C59.3672 8 59.3192 7.964 59.3072 7.916L58.2512 4.868C58.2392 4.82 58.2032 4.796 58.1552 4.796H57.0872C57.0032 4.796 56.9672 4.832 56.9672 4.916V7.88C56.9672 7.964 56.9312 8 56.8472 8H55.7072C55.6232 8 55.5872 7.964 55.5872 7.88V0.56C55.5872 0.476 55.6232 0.439999 55.7072 0.439999H58.4072C59.7752 0.439999 60.6392 1.316 60.6392 2.672V2.792C60.6392 3.404 60.1232 4.112 59.6672 4.424C59.6312 4.448 59.6192 4.472 59.6192 4.52C59.6192 4.556 59.6432 4.616 59.6792 4.712L60.7112 7.712C60.7352 7.796 60.7712 7.868 60.7712 7.904ZM59.2712 2.672V2.564C59.2712 2.096 58.8752 1.7 58.4072 1.7H57.0872C57.0032 1.7 56.9672 1.736 56.9672 1.82V3.416C56.9672 3.5 57.0032 3.536 57.0872 3.536H58.4072C58.8752 3.536 59.2712 3.14 59.2712 2.672ZM66.3913 7.88C66.3913 7.964 66.3553 8 66.2713 8H62.0353C61.9513 8 61.9153 7.964 61.9153 7.88V0.56C61.9153 0.476 61.9513 0.439999 62.0353 0.439999H66.2713C66.3553 0.439999 66.3913 0.476 66.3913 0.56V1.58C66.3913 1.664 66.3553 1.7 66.2713 1.7H63.4153C63.3313 1.7 63.2953 1.736 63.2953 1.82V3.416C63.2953 3.5 63.3313 3.536 63.4153 3.536H65.7553C65.8393 3.536 65.8753 3.572 65.8753 3.656V4.676C65.8753 4.76 65.8393 4.796 65.7553 4.796H63.4153C63.3313 4.796 63.2953 4.832 63.2953 4.916V6.62C63.2953 6.704 63.3313 6.74 63.4153 6.74H66.2713C66.3553 6.74 66.3913 6.776 66.3913 6.86V7.88ZM69.0258 7.88C69.0258 7.964 68.9898 8 68.9058 8H67.7658C67.6818 8 67.6458 7.964 67.6458 7.88V0.56C67.6458 0.476 67.6818 0.439999 67.7658 0.439999H68.9058C68.9898 0.439999 69.0258 0.476 69.0258 0.56V7.88ZM74.4741 1.58C74.4741 1.664 74.4381 1.7 74.3541 1.7H73.0461C72.9621 1.7 72.9261 1.736 72.9261 1.82V7.88C72.9261 7.964 72.8901 8 72.8061 8H71.6781C71.5941 8 71.5581 7.964 71.5581 7.88V1.82C71.5581 1.736 71.5221 1.7 71.4381 1.7H70.1301C70.0461 1.7 70.0101 1.664 70.0101 1.58V0.56C70.0101 0.476 70.0461 0.439999 70.1301 0.439999H74.3541C74.4381 0.439999 74.4741 0.476 74.4741 0.56V1.58ZM80.0767 5.996C80.0767 7.244 79.2007 8.12 77.8447 8.12H77.2567C75.8887 8.12 75.0247 7.244 75.0247 5.996V2.444C75.0247 1.196 75.8887 0.319999 77.2567 0.319999H77.8447C79.2007 0.319999 80.0767 1.196 80.0767 2.444V5.996ZM78.6967 5.996V2.444C78.6967 1.964 78.3247 1.58 77.8447 1.58H77.2567C76.7887 1.58 76.3927 1.976 76.3927 2.444V5.996C76.3927 6.464 76.7887 6.86 77.2567 6.86H77.8447C78.3247 6.86 78.6967 6.476 78.6967 5.996ZM85.9608 5.996C85.9608 7.244 85.0968 8.12 83.7288 8.12H83.2488C82.2528 8.12 81.7128 7.712 81.3528 7.148C81.2448 6.968 81.1248 6.776 81.1248 6.704C81.1248 6.668 81.1488 6.644 81.1968 6.62L82.1568 6.128C82.2048 6.104 82.2528 6.068 82.3008 6.068C82.3368 6.068 82.3728 6.092 82.3968 6.152C82.6128 6.668 82.9248 6.86 83.2488 6.86H83.7288C84.1968 6.86 84.5928 6.464 84.5928 5.996C84.5928 5.348 83.9568 5.108 83.3088 4.808C82.3608 4.352 81.3168 3.86 81.3168 2.444C81.3168 1.196 82.1808 0.319999 83.5488 0.319999H83.7408C84.7368 0.319999 85.2768 0.728 85.6368 1.292C85.7448 1.472 85.8648 1.664 85.8648 1.736C85.8648 1.772 85.8408 1.796 85.7928 1.82L84.8328 2.312C84.7848 2.336 84.7368 2.372 84.6888 2.372C84.6528 2.372 84.6168 2.348 84.5928 2.288C84.3768 1.772 84.0648 1.58 83.7408 1.58H83.5488C83.0808 1.58 82.6848 1.976 82.6848 2.444C82.6848 3.056 83.3808 3.236 84.0768 3.56C84.9888 3.98 85.9608 4.544 85.9608 5.996ZM94.486 7.904C94.486 7.964 94.45 8 94.366 8H93.13C93.082 8 93.034 7.964 93.022 7.916L91.966 4.868C91.954 4.82 91.918 4.796 91.87 4.796H90.802C90.718 4.796 90.682 4.832 90.682 4.916V7.88C90.682 7.964 90.646 8 90.562 8H89.422C89.338 8 89.302 7.964 89.302 7.88V0.56C89.302 0.476 89.338 0.439999 89.422 0.439999H92.122C93.49 0.439999 94.354 1.316 94.354 2.672V2.792C94.354 3.404 93.838 4.112 93.382 4.424C93.346 4.448 93.334 4.472 93.334 4.52C93.334 4.556 93.358 4.616 93.394 4.712L94.426 7.712C94.45 7.796 94.486 7.868 94.486 7.904ZM92.986 2.672V2.564C92.986 2.096 92.59 1.7 92.122 1.7H90.802C90.718 1.7 90.682 1.736 90.682 1.82V3.416C90.682 3.5 90.718 3.536 90.802 3.536H92.122C92.59 3.536 92.986 3.14 92.986 2.672ZM100.106 7.88C100.106 7.964 100.07 8 99.9862 8H95.7502C95.6662 8 95.6302 7.964 95.6302 7.88V0.56C95.6302 0.476 95.6662 0.439999 95.7502 0.439999H99.9862C100.07 0.439999 100.106 0.476 100.106 0.56V1.58C100.106 1.664 100.07 1.7 99.9862 1.7H97.1302C97.0462 1.7 97.0102 1.736 97.0102 1.82V3.416C97.0102 3.5 97.0462 3.536 97.1302 3.536H99.4702C99.5542 3.536 99.5902 3.572 99.5902 3.656V4.676C99.5902 4.76 99.5542 4.796 99.4702 4.796H97.1302C97.0462 4.796 97.0102 4.832 97.0102 4.916V6.62C97.0102 6.704 97.0462 6.74 97.1302 6.74H99.9862C100.07 6.74 100.106 6.776 100.106 6.86V7.88ZM105.988 5.996C105.988 7.244 105.124 8.12 103.756 8.12H103.276C102.28 8.12 101.74 7.712 101.38 7.148C101.272 6.968 101.152 6.776 101.152 6.704C101.152 6.668 101.176 6.644 101.224 6.62L102.184 6.128C102.232 6.104 102.28 6.068 102.328 6.068C102.364 6.068 102.4 6.092 102.424 6.152C102.64 6.668 102.952 6.86 103.276 6.86H103.756C104.224 6.86 104.62 6.464 104.62 5.996C104.62 5.348 103.984 5.108 103.336 4.808C102.388 4.352 101.344 3.86 101.344 2.444C101.344 1.196 102.208 0.319999 103.576 0.319999H103.768C104.764 0.319999 105.304 0.728 105.664 1.292C105.772 1.472 105.892 1.664 105.892 1.736C105.892 1.772 105.868 1.796 105.82 1.82L104.86 2.312C104.812 2.336 104.764 2.372 104.716 2.372C104.68 2.372 104.644 2.348 104.62 2.288C104.404 1.772 104.092 1.58 103.768 1.58H103.576C103.108 1.58 102.712 1.976 102.712 2.444C102.712 3.056 103.408 3.236 104.104 3.56C105.016 3.98 105.988 4.544 105.988 5.996ZM111.684 7.88C111.684 7.964 111.648 8 111.564 8H107.328C107.244 8 107.208 7.964 107.208 7.88V0.56C107.208 0.476 107.244 0.439999 107.328 0.439999H111.564C111.648 0.439999 111.684 0.476 111.684 0.56V1.58C111.684 1.664 111.648 1.7 111.564 1.7H108.708C108.624 1.7 108.588 1.736 108.588 1.82V3.416C108.588 3.5 108.624 3.536 108.708 3.536H111.048C111.132 3.536 111.168 3.572 111.168 3.656V4.676C111.168 4.76 111.132 4.796 111.048 4.796H108.708C108.624 4.796 108.588 4.832 108.588 4.916V6.62C108.588 6.704 108.624 6.74 108.708 6.74H111.564C111.648 6.74 111.684 6.776 111.684 6.86V7.88ZM118.123 7.904C118.123 7.964 118.087 8 118.003 8H116.767C116.719 8 116.671 7.964 116.659 7.916L115.603 4.868C115.591 4.82 115.555 4.796 115.507 4.796H114.439C114.355 4.796 114.319 4.832 114.319 4.916V7.88C114.319 7.964 114.283 8 114.199 8H113.059C112.975 8 112.939 7.964 112.939 7.88V0.56C112.939 0.476 112.975 0.439999 113.059 0.439999H115.759C117.127 0.439999 117.991 1.316 117.991 2.672V2.792C117.991 3.404 117.475 4.112 117.019 4.424C116.983 4.448 116.971 4.472 116.971 4.52C116.971 4.556 116.995 4.616 117.031 4.712L118.063 7.712C118.087 7.796 118.123 7.868 118.123 7.904ZM116.623 2.672V2.564C116.623 2.096 116.227 1.7 115.759 1.7H114.439C114.355 1.7 114.319 1.736 114.319 1.82V3.416C114.319 3.5 114.355 3.536 114.439 3.536H115.759C116.227 3.536 116.623 3.14 116.623 2.672ZM124.064 0.536C124.064 0.584 124.028 0.668 124.016 0.715999L121.82 7.916C121.808 7.976 121.76 8 121.7 8H120.836C120.776 8 120.728 7.976 120.716 7.916L118.532 0.763999C118.508 0.68 118.472 0.595999 118.472 0.536C118.472 0.476 118.52 0.439999 118.604 0.439999H119.804C119.864 0.439999 119.912 0.464 119.924 0.524L121.112 4.844C121.136 4.94 121.208 5.3 121.232 5.396H121.292C121.316 5.3 121.388 4.952 121.412 4.868L122.6 0.524C122.612 0.464 122.66 0.439999 122.72 0.439999H123.932C124.016 0.439999 124.064 0.476 124.064 0.536ZM129.291 7.904C129.291 7.964 129.243 8 129.159 8H127.947C127.887 8 127.839 7.976 127.827 7.916L127.467 6.656C127.455 6.596 127.407 6.584 127.347 6.584H125.631C125.571 6.584 125.523 6.596 125.511 6.656L125.151 7.916C125.139 7.976 125.091 8 125.031 8H123.831C123.747 8 123.699 7.964 123.699 7.904C123.699 7.856 123.735 7.784 123.759 7.688L125.943 0.524C125.955 0.464 126.003 0.439999 126.063 0.439999H126.927C126.987 0.439999 127.035 0.464 127.047 0.524L129.231 7.688C129.255 7.76 129.291 7.856 129.291 7.904ZM127.059 5.216C127.059 5.168 127.023 5.06 126.999 4.988L126.651 3.584C126.627 3.5 126.543 3.02 126.519 2.924H126.483C126.459 3.02 126.363 3.488 126.339 3.584L125.979 4.976C125.955 5.06 125.919 5.168 125.919 5.216C125.919 5.276 125.967 5.324 126.051 5.324H126.927C127.011 5.324 127.059 5.276 127.059 5.216ZM135.053 5.768C135.053 7.136 134.189 8 132.821 8H130.121C130.037 8 130.001 7.964 130.001 7.88V0.56C130.001 0.476 130.037 0.439999 130.121 0.439999H132.821C134.189 0.439999 135.053 1.316 135.053 2.672V5.768ZM133.685 5.876V2.564C133.685 2.096 133.289 1.7 132.821 1.7H131.501C131.417 1.7 131.381 1.736 131.381 1.82V6.62C131.381 6.704 131.417 6.74 131.501 6.74H132.821C133.289 6.74 133.685 6.368 133.685 5.876ZM141.377 5.996C141.377 7.244 140.501 8.12 139.145 8.12H138.557C137.189 8.12 136.325 7.244 136.325 5.996V2.444C136.325 1.196 137.189 0.319999 138.557 0.319999H139.145C140.501 0.319999 141.377 1.196 141.377 2.444V5.996ZM139.997 5.996V2.444C139.997 1.964 139.625 1.58 139.145 1.58H138.557C138.089 1.58 137.693 1.976 137.693 2.444V5.996C137.693 6.464 138.089 6.86 138.557 6.86H139.145C139.625 6.86 139.997 6.476 139.997 5.996ZM147.262 5.996C147.262 7.244 146.398 8.12 145.03 8.12H144.55C143.554 8.12 143.014 7.712 142.654 7.148C142.546 6.968 142.426 6.776 142.426 6.704C142.426 6.668 142.45 6.644 142.498 6.62L143.458 6.128C143.506 6.104 143.554 6.068 143.602 6.068C143.638 6.068 143.674 6.092 143.698 6.152C143.914 6.668 144.226 6.86 144.55 6.86H145.03C145.498 6.86 145.894 6.464 145.894 5.996C145.894 5.348 145.258 5.108 144.61 4.808C143.662 4.352 142.618 3.86 142.618 2.444C142.618 1.196 143.482 0.319999 144.85 0.319999H145.042C146.038 0.319999 146.578 0.728 146.938 1.292C147.046 1.472 147.166 1.664 147.166 1.736C147.166 1.772 147.142 1.796 147.094 1.82L146.134 2.312C146.086 2.336 146.038 2.372 145.99 2.372C145.954 2.372 145.918 2.348 145.894 2.288C145.678 1.772 145.366 1.58 145.042 1.58H144.85C144.382 1.58 143.986 1.976 143.986 2.444C143.986 3.056 144.682 3.236 145.378 3.56C146.29 3.98 147.262 4.544 147.262 5.996ZM149.862 7.316C149.862 7.748 149.49 8.12 149.058 8.12C148.626 8.12 148.254 7.748 148.254 7.316C148.254 6.884 148.626 6.512 149.058 6.512C149.49 6.512 149.862 6.884 149.862 7.316ZM157.928 2.444C157.928 3.848 156.932 4.436 156.008 5C155.36 5.396 154.748 5.756 154.748 6.5V6.62C154.748 6.704 154.784 6.74 154.868 6.74H157.724C157.808 6.74 157.844 6.776 157.844 6.86V7.88C157.844 7.964 157.808 8 157.724 8H153.488C153.404 8 153.368 7.964 153.368 7.88V6.5C153.368 5.096 154.28 4.388 155.156 3.848C155.852 3.428 156.56 3.116 156.56 2.444C156.56 1.976 156.164 1.58 155.696 1.58H155.264C154.94 1.58 154.628 1.772 154.412 2.288C154.388 2.348 154.352 2.372 154.316 2.372C154.268 2.372 154.22 2.336 154.172 2.312L153.212 1.82C153.164 1.796 153.14 1.772 153.14 1.736C153.14 1.664 153.26 1.472 153.368 1.292C153.728 0.728 154.268 0.319999 155.264 0.319999H155.696C157.064 0.319999 157.928 1.196 157.928 2.444ZM163.837 5.996C163.837 7.244 162.961 8.12 161.605 8.12H161.257C159.889 8.12 159.025 7.244 159.025 5.996V2.444C159.025 1.196 159.889 0.319999 161.257 0.319999H161.605C162.961 0.319999 163.837 1.196 163.837 2.444V5.996ZM162.457 5.996V2.444C162.457 1.964 162.085 1.58 161.605 1.58H161.257C160.789 1.58 160.393 1.976 160.393 2.444V5.996C160.393 6.464 160.789 6.86 161.257 6.86H161.605C162.085 6.86 162.457 6.476 162.457 5.996ZM169.624 2.444C169.624 3.848 168.628 4.436 167.704 5C167.056 5.396 166.444 5.756 166.444 6.5V6.62C166.444 6.704 166.48 6.74 166.564 6.74H169.42C169.504 6.74 169.54 6.776 169.54 6.86V7.88C169.54 7.964 169.504 8 169.42 8H165.184C165.1 8 165.064 7.964 165.064 7.88V6.5C165.064 5.096 165.976 4.388 166.852 3.848C167.548 3.428 168.256 3.116 168.256 2.444C168.256 1.976 167.86 1.58 167.392 1.58H166.96C166.636 1.58 166.324 1.772 166.108 2.288C166.084 2.348 166.048 2.372 166.012 2.372C165.964 2.372 165.916 2.336 165.868 2.312L164.908 1.82C164.86 1.796 164.836 1.772 164.836 1.736C164.836 1.664 164.956 1.472 165.064 1.292C165.424 0.728 165.964 0.319999 166.96 0.319999H167.392C168.76 0.319999 169.624 1.196 169.624 2.444ZM175.188 5.9C175.188 7.268 174.312 8.12 172.944 8.12H172.608C171.612 8.12 171.072 7.712 170.712 7.148C170.604 6.968 170.484 6.776 170.484 6.704C170.484 6.668 170.508 6.644 170.556 6.62L171.516 6.128C171.564 6.104 171.612 6.068 171.66 6.068C171.696 6.068 171.732 6.092 171.756 6.152C171.972 6.668 172.284 6.86 172.608 6.86H172.944C173.412 6.86 173.808 6.464 173.808 5.996V5.588C173.808 5.108 173.424 4.736 172.944 4.736H171.864C171.78 4.736 171.744 4.7 171.744 4.616V3.596C171.744 3.512 171.78 3.476 171.864 3.476H172.944C173.412 3.476 173.808 3.08 173.808 2.612V2.444C173.808 1.976 173.412 1.58 172.944 1.58H172.608C172.284 1.58 171.972 1.772 171.756 2.288C171.732 2.348 171.696 2.372 171.66 2.372C171.612 2.372 171.564 2.336 171.516 2.312L170.556 1.82C170.508 1.796 170.484 1.772 170.484 1.736C170.484 1.664 170.604 1.472 170.712 1.292C171.072 0.728 171.612 0.319999 172.608 0.319999H172.944C174.312 0.319999 175.188 1.196 175.188 2.564V2.732C175.188 3.176 174.888 3.692 174.54 4.028C174.504 4.052 174.492 4.076 174.492 4.112C174.492 4.136 174.504 4.172 174.54 4.196C174.888 4.532 175.188 5.108 175.188 5.552V5.9Z" fill="white"/>
</svg>
